<?xml version="1.0" encoding="UTF-8"?>
<svg id="Layer_1" data-name="Layer 1" xmlns="http://www.w3.org/2000/svg" viewBox="0 0 1465.03 854.93">
  <defs>
    <style>
      .cls-1 {
        fill: #c8441d;
      }

      .cls-2, .cls-3 {
        fill: #000000;
      }

      .cls-4 {
        fill: #a91c15;
      }

      .cls-5 {
        fill: #7c9834;
      }

      .cls-6 {
        fill: #018ac1;
      }

      .cls-7 {
        fill: #05959e;
      }

      .cls-3 {
        stroke: #fff;
        stroke-miterlimit: 10;
        stroke-width: 4px;
      }

      .cls-8 {
        fill: #08314f;
      }

      .cls-9 {
        fill: #e98724;
      }

      .cls-10 {
        fill: none;
      }
    </style>
  </defs>
  <path class="cls-9" d="m645.37,221.1c-29.09-8.15-71.59-15.76-121.79-9.79-101.51,12.08-169.78,72.06-200.32,104.28-65.5,27.1-100.8,78.81-106.77,87.87.09-12.16,3.27-142,108.06-212.75,92.85-62.7,225.87-52.28,320.82,30.39Z"/>
  <path class="cls-1" d="m732.73,388.66c-26.59.26-53.17.52-79.76.78-3.26-8.26-9.11-20.34-19.56-32.07,0,0-8.63-9.68-20.54-17.59-19.67-13.05-73.55-26.11-146.02-29.6-3.51-1.2-7.07-2.31-10.69-3.31-36.83-10.2-67.08-7.54-76.81-6.4-7.18.84-16.95,2.4-28.38,5.53,19.23-17.34,52.87-43.41,100.85-60.12,28.22-9.83,141.16-49.28,219.35,15.94,49.05,40.92,59.04,101.84,61.56,126.84Z"/>
  <path class="cls-4" d="m690.05,389.43c-33.46.17-66.92.35-100.39.52-9.55-11.34-21.89-23.98-37.54-36.21-31.62-24.7-63.18-37.09-85.28-43.57,11.1-1.08,26.48-2.21,44.86-2.35,12.86-.1,27.8-.21,42.62,1.5,44.47,5.14,77.37,25.97,83.48,29.93,25.17,16.32,41.87,35.61,52.25,50.18Z"/>
  <path class="cls-5" d="m353.26,145.12c-27.95,18.97-69.81,52.64-104.27,106.67-1.93,3.03-18.62,29.45-30.65,59.83-40.42,102.05-14.1,212.71-3.21,251.64-100.67-98.88-115.23-242.84-49.66-331.35,61.94-83.62,172.3-86.6,187.79-86.78Z"/>
  <path class="cls-7" d="m424.19,680.83c-37.96,4.83-92.09,7.87-155.36-1.45-88.57-13.06-153.7-44.27-190.8-65.51-13.86-22.37-46.08-81.57-37.16-160.14,8.01-70.35,44.78-119.11,62.49-139.76-2.4,24.58-11.05,144.14,89.48,248.94,86.21,89.87,198.48,112.39,231.34,117.92Z"/>
  <path class="cls-8" d="m634.83,544.45c-.81,25.69-6.04,80.09-41,135.99-38.29,61.22-90.13,88.89-113.3,100.88-18.29,9.46-85.85,43.37-167.62,34.14-155.08-17.5-230.94-175.47-235.91-186.24,60.42,34.97,115.18,51.83,152.87,60.53,37.89,8.74,97.14,21.82,171.5,10.09,34.26-5.41,66.09-10.43,99.81-32.22,59.12-38.21,80.09-99.6,86.95-124.02,15.56.28,31.13.57,46.69.85Z"/>
  <path class="cls-6" d="m659.01,755.71c-10.95,12.29-46.63,50.14-106.97,75.44-95.92,40.21-183.68,19.14-213.37,10.58,26.31-1.69,134.77-11.13,221.22-86.33,99.28-86.36,93.15-193.01,91.76-210.95,27.55-.28,55.09-.57,82.64-.85.5,28.87-1.37,129.21-75.27,212.11Z"/>
  <path class="cls-10" d="m474.53,310.17c-5.67.62-11.05,1.31-16.12,2.05"/>
  <path class="cls-10" d="m700.14,354.12c-3.13-1.75-6.35-3.5-9.65-5.2"/>
  <g>
    <path class="cls-2" d="m613.42,431.91v25.3h47.18v17.92h-47.18v26.53h52.65v17.92h-71.8v-105.72h71.8v18.05h-52.65Z"/>
    <path class="cls-2" d="m771.53,413.86v105.72h-20.1l-48.41-73.44v73.44h-19.42v-105.72h19.28l49.23,74.4v-74.4h19.42Z"/>
    <path class="cls-2" d="m860.97,432.18h-28.04v87.39h-19.15v-87.39h-27.9v-18.33h75.08v18.33Z"/>
    <path class="cls-2" d="m895.03,431.91v25.3h47.18v17.92h-47.18v26.53h52.65v17.92h-71.8v-105.72h71.8v18.05h-52.65Z"/>
    <path class="cls-2" d="m1001.03,482.92h-15.86v36.65h-19.15v-105.72h47.18c19.15,0,34.46,15.32,34.46,34.33,0,15.73-11.08,28.58-25.85,32.41l28.17,38.98h-22.98l-25.99-36.65Zm-15.86-18.6h27.08c8.89,0,15.86-7.39,15.86-16.14s-6.97-16-15.86-16h-27.08v32.14Z"/>
    <path class="cls-2" d="m1143.54,448.87c0,18.87-14.91,35.01-34.19,35.01h-24.48v35.7h-19.15v-105.72h43.63c19.28,0,34.19,16,34.19,35.01Zm-19.15,0c0-8.75-6.97-16.69-16-16.69h-23.52v33.51h23.52c9.03,0,16-8.07,16-16.82Z"/>
    <path class="cls-2" d="m1194.69,482.92h-15.86v36.65h-19.15v-105.72h47.18c19.15,0,34.46,15.32,34.46,34.33,0,15.73-11.08,28.58-25.85,32.41l28.17,38.98h-22.98l-25.99-36.65Zm-15.86-18.6h27.08c8.89,0,15.86-7.39,15.86-16.14s-6.97-16-15.86-16h-27.08v32.14Z"/>
    <path class="cls-2" d="m1278.53,519.57h-19.15v-105.72h19.15v105.72Z"/>
    <path class="cls-2" d="m1370.99,491.95c0,18.33-18.05,30.36-37.47,30.36s-33.23-10.12-39.8-21.34l16.55-10.94c5.06,8.89,13.27,13.68,22.84,14.09,8.34.41,14.5-2.74,16.41-8.62,1.78-5.47-.96-10.94-7.38-13.95-5.61-2.6-20.93-9.85-24.07-11.49-11.62-5.74-19.83-13.13-19.83-27.49-.14-18.19,15.87-30.5,35.42-30.5,16.55,0,28.72,8.07,35.7,19.42l-16.28,9.85c-3.42-6.02-9.98-11.76-18.6-11.76-10.12,0-15.45,4.79-16.41,10.39-.96,6.29,3.28,10.53,9.85,13.54,4.38,1.91,19.15,9.16,24.21,11.76,9.98,4.92,18.87,12.86,18.87,26.67Z"/>
    <path class="cls-2" d="m1409.01,431.91v25.3h47.18v17.92h-47.18v26.53h52.65v17.92h-71.8v-105.72h71.8v18.05h-52.65Z"/>
  </g>
  <g>
    <path class="cls-2" d="m842.72,616.2c0,16.7-16.45,27.67-34.14,27.67s-30.28-9.22-36.26-19.44l15.08-9.97c4.61,8.1,12.09,12.46,20.81,12.84,7.6.37,13.21-2.49,14.95-7.85,1.62-4.99-.87-9.97-6.73-12.71-5.11-2.37-19.07-8.97-21.93-10.47-10.59-5.23-18.07-11.96-18.07-25.05-.12-16.57,14.46-27.79,32.28-27.79,15.08,0,26.17,7.35,32.53,17.7l-14.83,8.97c-3.12-5.48-9.1-10.72-16.95-10.72-9.22,0-14.08,4.36-14.95,9.47-.87,5.73,2.99,9.6,8.97,12.34,3.99,1.74,17.45,8.35,22.06,10.72,9.1,4.49,17.2,11.71,17.2,24.3Z"/>
    <path class="cls-2" d="m893.06,599.5l-13.46,14.08v27.79h-17.45v-96.33h17.45v44.61l41.75-44.61h22.81l-39.25,42,40.13,54.33h-22.18l-29.78-41.87Z"/>
    <path class="cls-2" d="m976.3,641.37h-17.45v-96.33h17.45v96.33Z"/>
    <path class="cls-2" d="m1059.05,624.8v16.57h-58.45v-96.33h17.45v79.76h41Z"/>
    <path class="cls-2" d="m1132.44,624.8v16.57h-58.45v-96.33h17.45v79.76h41Z"/>
    <path class="cls-2" d="m1259.92,545.04v96.33h-17.45v-40.5h-43.24v40.5h-17.45v-96.33h17.45v39.5h43.24v-39.5h17.45Z"/>
    <path class="cls-2" d="m1283.34,605.73v-60.69h17.45v59.82c0,11.71,10.47,21.31,22.18,21.31s22.31-9.6,22.31-21.31v-59.82h17.45v60.69c0,22.18-18.57,37.39-39.75,37.39s-39.63-15.2-39.63-37.39Z"/>
    <path class="cls-2" d="m1465.03,614.2c0,16.57-12.84,27.17-31.15,27.17h-47.48v-96.33h45.11c16.95,0,29.16,10.97,29.16,26.42,0,7.73-4.24,14.58-10.22,19.69,8.47,5.36,14.58,13.46,14.58,23.05Zm-61.19-29.66h27.67c6.23,0,11.34-5.11,11.34-11.46s-5.11-11.34-11.34-11.34h-27.67v22.8Zm42.62,28.29c0-6.6-5.36-11.96-11.96-11.96h-30.66v24.05h30.66c6.6,0,11.96-5.48,11.96-12.09Z"/>
  </g>
  <g>
    <path class="cls-2" d="m772.96,681.92v-5.46h23.84v5.38l-16.92,23.31h17.14v5.38h-24.33v-5.2l17.19-23.4h-16.92Z"/>
    <path class="cls-2" d="m815,698v-21.55h5.55v21.24c0,4.41,3.83,8.11,8.37,8.11s8.37-3.7,8.37-8.11v-21.24h5.55v21.55c0,7.4-6.13,13.18-13.93,13.18s-13.92-5.77-13.92-13.18Z"/>
    <path class="cls-2" d="m859.95,704.92l4.8-3.22c1.72,2.78,4.36,4.32,7.49,4.5,3.61.13,4.98-1.59,5.46-3.08.66-1.98-.35-3.97-2.6-5.07-1.81-.84-6.83-3.22-7.89-3.75-3.26-1.67-6.3-3.83-6.3-8.77,0-2.47.88-4.67,2.6-6.39,2.12-2.12,5.24-3.3,8.64-3.3,4.8,0,8.77,2.12,11.24,5.95l-4.71,2.87c-1.45-2.34-3.79-3.75-6.21-3.75-3.79,0-5.46,1.98-5.77,3.7-.31,2.03.84,3.66,3.48,4.85,1.41.66,6.21,3.04,7.93,3.88,4.01,2.03,5.95,4.8,5.95,8.46,0,5.51-5.02,9.65-11.63,9.65-7.4,0-11.1-4.36-12.47-6.52Z"/>
    <path class="cls-2" d="m907.42,681.66v9.08h15.51v5.2h-15.51v9.39h17.27v5.2h-22.83v-34.06h22.83v5.2h-17.27Z"/>
    <path class="cls-2" d="m987.18,681.74h-9.17v28.78h-5.55v-28.78h-9.17v-5.29h23.88v5.29Z"/>
    <path class="cls-2" d="m1009.83,681.66v9.08h15.51v5.2h-15.51v9.39h17.28v5.2h-22.83v-34.06h22.83v5.2h-17.28Z"/>
    <path class="cls-2" d="m1068.84,684.78c-2.42-2.47-5.46-3.88-8.46-3.88-6.43,0-11.63,5.64-11.63,12.6s5.2,12.6,11.63,12.6c2.95,0,5.99-1.41,8.42-3.88l4.01,3.75c-3.22,3.44-7.62,5.29-12.43,5.29-9.56,0-17.32-7.98-17.32-17.76s7.76-17.8,17.32-17.8c4.8,0,9.39,2.07,12.65,5.64l-4.19,3.44Z"/>
    <path class="cls-2" d="m1113.71,710.52v-14.63h-16.31v14.63h-5.55v-34.06h5.55v14.23h16.31v-14.23h5.55v34.06h-5.55Z"/>
    <path class="cls-2" d="m1161.13,710.52l-16.48-24.99v24.99h-5.64v-34.06h5.77l16.7,25.29v-25.29h5.64v34.06h-5.99Z"/>
    <path class="cls-2" d="m1220.14,693.64c0,9.83-7.84,17.85-17.54,17.85s-17.54-8.02-17.54-17.85,7.89-17.85,17.54-17.85,17.54,8.02,17.54,17.85Zm-5.64,0c0-7.01-5.33-12.69-11.9-12.69s-11.9,5.68-11.9,12.69,5.33,12.69,11.9,12.69,11.9-5.68,11.9-12.69Z"/>
    <path class="cls-2" d="m1243.85,676.46v28.78h14.81v5.29h-20.36v-34.06h5.55Z"/>
    <path class="cls-2" d="m1307.53,693.64c0,9.83-7.84,17.85-17.54,17.85s-17.54-8.02-17.54-17.85,7.89-17.85,17.54-17.85,17.54,8.02,17.54,17.85Zm-5.64,0c0-7.01-5.33-12.69-11.9-12.69s-11.9,5.68-11.9,12.69,5.33,12.69,11.9,12.69,11.9-5.68,11.9-12.69Z"/>
    <path class="cls-2" d="m1354.16,681.79l-4.19,3.53c-2.38-2.78-5.64-4.36-9.03-4.36-6.57,0-11.77,5.51-11.77,12.56s4.98,12.6,11.59,12.6c3.75,0,7.23-1.59,9.56-4.41l.09-.09.04-3.92h-9.43v-5.2h14.9v10.97l-.53.71c-3.17,4.54-8.64,7.23-14.63,7.23-9.92,0-17.36-7.67-17.36-17.89s7.71-17.85,17.54-17.85c5.2,0,10,2.2,13.22,6.12Z"/>
    <path class="cls-2" d="m1380.07,676.46v34.06h-5.55v-34.06h5.55Z"/>
    <path class="cls-2" d="m1405.54,681.66v9.08h15.51v5.2h-15.51v9.39h17.27v5.2h-22.83v-34.06h22.83v5.2h-17.27Z"/>
    <path class="cls-2" d="m1438.15,704.92l4.8-3.22c1.72,2.78,4.36,4.32,7.49,4.5,3.61.13,4.98-1.59,5.46-3.08.66-1.98-.35-3.97-2.6-5.07-1.81-.84-6.83-3.22-7.89-3.75-3.26-1.67-6.3-3.83-6.3-8.77,0-2.47.88-4.67,2.6-6.39,2.12-2.12,5.24-3.3,8.64-3.3,4.8,0,8.77,2.12,11.24,5.95l-4.71,2.87c-1.45-2.34-3.79-3.75-6.21-3.75-3.79,0-5.46,1.98-5.77,3.7-.31,2.03.84,3.66,3.48,4.85,1.41.66,6.21,3.04,7.93,3.88,4.01,2.03,5.95,4.8,5.95,8.46,0,5.51-5.02,9.65-11.63,9.65-7.4,0-11.1-4.36-12.47-6.52Z"/>
  </g>
  <g>
    <path class="cls-2" d="m382.39,389.95c-44.91,37.59-89.81,75.17-134.72,112.76,55.69,13.04,111.38,26.09,167.08,39.13,28.45-24.7,58.57-49.23,90.43-73.36,5.28-4,10.56-7.95,15.83-11.85,10.12-7.32,20.24-14.64,30.36-21.96-56.33-14.91-112.66-29.81-168.98-44.72Z"/>
    <path class="cls-2" d="m491.76,491.34c-24.99,18.91-49.98,37.82-74.97,56.73-29.58-6.81-59.16-13.61-88.74-20.42,3.14,13.16,6.28,26.32,9.43,39.48,10.76,4.82,44.15,18.14,86.17,8.82,43.48-9.63,68.53-37.36,75.96-46.26-2.61-12.79-5.23-25.57-7.84-38.36Z"/>
    <path class="cls-3" d="m290.13,501.31c-.97,16.7-1.95,33.4-2.92,50.11"/>
    <circle class="cls-2" cx="288.44" cy="537.61" r="4.19"/>
    <path class="cls-2" d="m286.3,542.27c-.88.94-2.19,2.52-3.68,5.5-1.41,2.81-2.37,5.64-3.26,9.41-.98,4.16-1.46,7.75-1.84,11.77-.42,4.4-.82,10.29-.83,17.34.61.59,1.47,1.3,2.64,1.86,2.83,1.37,5.54.98,6.63.76.75-6.33,1.5-12.66,2.25-18.99.36,6.31.72,12.61,1.08,18.92l5.95-1.32c-.23-6.41-.47-12.82-.7-19.23.99,3.6,1.92,7.41,2.76,11.42.49,2.33.92,4.62,1.29,6.84,1.16-.48,2.31-.96,3.47-1.44.19-5.01-.03-11.13-1.31-17.98-2.32-12.36-7.1-21.81-10.86-27.89-.96.64-2.25,1.62-3.56,3.02Z"/>
  </g>
</svg>
