<?xml version="1.0" encoding="UTF-8"?>
<svg id="Layer_1" data-name="Layer 1" xmlns="http://www.w3.org/2000/svg" viewBox="0 0 2475.41 653.81">
  <defs>
    <style>
      .cls-1, .cls-2 {
        fill: #fff;
      }

      .cls-2 {
        stroke: #fff;
        stroke-miterlimit: 10;
        stroke-width: 4px;
      }
    </style>
  </defs>
  <g>
    <path class="cls-1" d="m743.73,85.31v51.45h95.94v36.43h-95.94v53.95h107.07v36.43h-146V48.6h146v36.71h-107.07Z"/>
    <path class="cls-1" d="m1065.22,48.6v214.97h-40.88l-98.45-149.34v149.34h-39.49V48.6h39.21l100.11,151.29V48.6h39.49Z"/>
    <path class="cls-1" d="m1247.1,85.87h-57.01v177.71h-38.93V85.87h-56.73v-37.26h152.68v37.26Z"/>
    <path class="cls-1" d="m1316.36,85.31v51.45h95.94v36.43h-95.94v53.95h107.07v36.43h-146V48.6h146v36.71h-107.07Z"/>
    <path class="cls-1" d="m1531.89,189.04h-32.26v74.53h-38.93V48.6h95.94c38.93,0,70.08,31.15,70.08,69.8,0,31.98-22.53,58.12-52.56,65.91l57.29,79.26h-46.72l-52.84-74.53Zm-32.26-37.82h55.06c18.08,0,32.26-15.02,32.26-32.82s-14.18-32.54-32.26-32.54h-55.06v65.35Z"/>
    <path class="cls-1" d="m1821.68,119.79c0,38.38-30.31,71.19-69.53,71.19h-49.78v72.58h-38.93V48.6h88.71c39.21,0,69.53,32.54,69.53,71.19Zm-38.93,0c0-17.8-14.18-33.93-32.54-33.93h-47.83v68.13h47.83c18.35,0,32.54-16.41,32.54-34.21Z"/>
    <path class="cls-1" d="m1925.69,189.04h-32.26v74.53h-38.93V48.6h95.94c38.93,0,70.08,31.15,70.08,69.8,0,31.98-22.53,58.12-52.56,65.91l57.29,79.26h-46.72l-52.84-74.53Zm-32.26-37.82h55.06c18.08,0,32.26-15.02,32.26-32.82s-14.18-32.54-32.26-32.54h-55.06v65.35Z"/>
    <path class="cls-1" d="m2096.18,263.57h-38.93V48.6h38.93v214.97Z"/>
    <path class="cls-1" d="m2284.17,207.39c0,37.27-36.71,61.74-76.2,61.74s-67.58-20.58-80.93-43.38l33.65-22.25c10.29,18.08,26.97,27.81,46.44,28.64,16.96.83,29.48-5.56,33.37-17.52,3.62-11.12-1.95-22.25-15.02-28.37-11.4-5.28-42.55-20.02-48.95-23.36-23.64-11.68-40.32-26.7-40.32-55.9-.28-36.99,32.26-62.02,72.03-62.02,33.65,0,58.4,16.41,72.58,39.49l-33.09,20.02c-6.95-12.24-20.3-23.92-37.82-23.92-20.58,0-31.42,9.73-33.37,21.14-1.95,12.79,6.67,21.41,20.02,27.53,8.9,3.89,38.93,18.63,49.22,23.92,20.3,10.01,38.38,26.14,38.38,54.23Z"/>
    <path class="cls-1" d="m2361.49,85.31v51.45h95.94v36.43h-95.94v53.95h107.07v36.43h-146V48.6h146v36.71h-107.07Z"/>
  </g>
  <g>
    <path class="cls-1" d="m1209.99,460.05c0,33.96-33.45,56.25-69.43,56.25s-61.58-18.75-73.74-39.53l30.66-20.27c9.37,16.47,24.58,25.34,42.32,26.1,15.46.76,26.86-5.07,30.41-15.96,3.29-10.14-1.77-20.27-13.68-25.85-10.39-4.82-38.77-18.25-44.6-21.29-21.54-10.64-36.74-24.33-36.74-50.93-.25-33.7,29.4-56.51,65.63-56.51,30.66,0,53.21,14.95,66.14,35.98l-30.15,18.24c-6.34-11.15-18.5-21.79-34.46-21.79-18.75,0-28.63,8.87-30.41,19.26-1.78,11.66,6.08,19.51,18.25,25.09,8.11,3.55,35.48,16.98,44.85,21.79,18.5,9.12,34.97,23.82,34.97,49.41Z"/>
    <path class="cls-1" d="m1312.35,426.09l-27.37,28.63v56.51h-35.48v-195.88h35.48v90.72l84.89-90.72h46.37l-79.82,85.4,81.59,110.48h-45.1l-60.56-85.14Z"/>
    <path class="cls-1" d="m1481.62,511.23h-35.48v-195.88h35.48v195.88Z"/>
    <path class="cls-1" d="m1649.87,477.53v33.7h-118.85v-195.88h35.48v162.18h83.37Z"/>
    <path class="cls-1" d="m1799.12,477.53v33.7h-118.85v-195.88h35.48v162.18h83.37Z"/>
    <path class="cls-1" d="m2058.33,315.35v195.88h-35.48v-82.36h-87.93v82.36h-35.48v-195.88h35.48v80.33h87.93v-80.33h35.48Z"/>
    <path class="cls-1" d="m2105.96,438.76v-123.41h35.48v121.63c0,23.82,21.29,43.33,45.11,43.33s45.36-19.51,45.36-43.33v-121.63h35.48v123.41c0,45.1-37.76,76.02-80.83,76.02s-80.58-30.92-80.58-76.02Z"/>
    <path class="cls-1" d="m2475.41,455.99c0,33.7-26.1,55.24-63.35,55.24h-96.55v-195.88h91.73c34.46,0,59.3,22.3,59.3,53.72,0,15.71-8.62,29.65-20.78,40.04,17.23,10.9,29.65,27.37,29.65,46.88Zm-124.42-60.31h56.25c12.67,0,23.06-10.39,23.06-23.31s-10.39-23.06-23.06-23.06h-56.25v46.37Zm86.66,57.52c0-13.43-10.9-24.33-24.33-24.33h-62.34v48.91h62.34c13.43,0,24.33-11.15,24.33-24.58Z"/>
  </g>
  <g>
    <path class="cls-1" d="m1068.13,593.69v-11.11h48.48v10.93l-34.41,47.4h34.86v10.93h-49.46v-10.57l34.95-47.58h-34.41Z"/>
    <path class="cls-1" d="m1153.62,626.39v-43.82h11.29v43.19c0,8.96,7.8,16.49,17.03,16.49s17.03-7.53,17.03-16.49v-43.19h11.29v43.82c0,15.06-12.46,26.79-28.32,26.79s-28.31-11.74-28.31-26.79Z"/>
    <path class="cls-1" d="m1245.03,640.46l9.77-6.54c3.49,5.65,8.87,8.78,15.23,9.14,7.35.27,10.13-3.23,11.11-6.27,1.34-4.03-.72-8.06-5.29-10.3-3.67-1.7-13.89-6.54-16.04-7.62-6.63-3.41-12.81-7.8-12.81-17.83,0-5.02,1.79-9.5,5.29-12.99,4.3-4.3,10.66-6.72,17.56-6.72,9.77,0,17.83,4.3,22.85,12.1l-9.59,5.83c-2.96-4.75-7.71-7.62-12.64-7.62-7.7,0-11.11,4.03-11.74,7.53-.63,4.12,1.7,7.44,7.08,9.86,2.87,1.34,12.64,6.18,16.13,7.89,8.16,4.12,12.1,9.77,12.1,17.2,0,11.2-10.21,19.63-23.66,19.63-15.05,0-22.58-8.87-25.36-13.26Z"/>
    <path class="cls-1" d="m1341.54,593.15v18.46h31.54v10.57h-31.54v19.09h35.12v10.57h-46.42v-69.27h46.42v10.57h-35.12Z"/>
    <path class="cls-1" d="m1503.74,593.33h-18.64v58.51h-11.29v-58.51h-18.64v-10.75h48.57v10.75Z"/>
    <path class="cls-1" d="m1549.8,593.15v18.46h31.54v10.57h-31.54v19.09h35.13v10.57h-46.42v-69.27h46.42v10.57h-35.13Z"/>
    <path class="cls-1" d="m1669.79,599.51c-4.93-5.02-11.11-7.89-17.2-7.89-13.08,0-23.66,11.47-23.66,25.63s10.57,25.63,23.66,25.63c6,0,12.19-2.87,17.12-7.89l8.15,7.62c-6.54,6.99-15.5,10.75-25.27,10.75-19.44,0-35.22-16.22-35.22-36.11s15.77-36.2,35.22-36.2c9.77,0,19.09,4.21,25.72,11.47l-8.51,6.99Z"/>
    <path class="cls-1" d="m1761.02,651.84v-29.75h-33.16v29.75h-11.29v-69.27h11.29v28.94h33.16v-28.94h11.29v69.27h-11.29Z"/>
    <path class="cls-1" d="m1857.44,651.84l-33.51-50.81v50.81h-11.47v-69.27h11.74l33.96,51.44v-51.44h11.47v69.27h-12.19Z"/>
    <path class="cls-1" d="m1977.43,617.52c0,19.98-15.95,36.29-35.66,36.29s-35.66-16.31-35.66-36.29,16.04-36.29,35.66-36.29,35.66,16.31,35.66,36.29Zm-11.47,0c0-14.25-10.84-25.81-24.19-25.81s-24.19,11.56-24.19,25.81,10.84,25.81,24.19,25.81,24.19-11.56,24.19-25.81Z"/>
    <path class="cls-1" d="m2025.65,582.57v58.51h30.11v10.75h-41.4v-69.27h11.29Z"/>
    <path class="cls-1" d="m2155.13,617.52c0,19.98-15.95,36.29-35.66,36.29s-35.66-16.31-35.66-36.29,16.04-36.29,35.66-36.29,35.66,16.31,35.66,36.29Zm-11.47,0c0-14.25-10.84-25.81-24.19-25.81s-24.19,11.56-24.19,25.81,10.84,25.81,24.19,25.81,24.19-11.56,24.19-25.81Z"/>
    <path class="cls-1" d="m2249.95,593.42l-8.51,7.17c-4.84-5.64-11.47-8.87-18.37-8.87-13.35,0-23.92,11.2-23.92,25.54s10.13,25.63,23.57,25.63c7.62,0,14.69-3.23,19.44-8.96l.18-.18.09-7.97h-19.18v-10.57h30.29v22.31l-1.08,1.43c-6.45,9.23-17.56,14.69-29.75,14.69-20.16,0-35.31-15.59-35.31-36.38s15.68-36.29,35.66-36.29c10.57,0,20.34,4.48,26.88,12.45Z"/>
    <path class="cls-1" d="m2302.64,582.57v69.27h-11.29v-69.27h11.29Z"/>
    <path class="cls-1" d="m2354.44,593.15v18.46h31.54v10.57h-31.54v19.09h35.12v10.57h-46.42v-69.27h46.42v10.57h-35.12Z"/>
    <path class="cls-1" d="m2420.75,640.46l9.77-6.54c3.49,5.65,8.87,8.78,15.23,9.14,7.35.27,10.13-3.23,11.11-6.27,1.34-4.03-.72-8.06-5.29-10.3-3.67-1.7-13.89-6.54-16.04-7.62-6.63-3.41-12.81-7.8-12.81-17.83,0-5.02,1.79-9.5,5.29-12.99,4.3-4.3,10.66-6.72,17.56-6.72,9.77,0,17.83,4.3,22.85,12.1l-9.59,5.83c-2.96-4.75-7.71-7.62-12.64-7.62-7.7,0-11.11,4.03-11.74,7.53-.63,4.12,1.7,7.44,7.08,9.86,2.87,1.34,12.64,6.18,16.13,7.89,8.16,4.12,12.1,9.77,12.1,17.2,0,11.2-10.21,19.63-23.66,19.63-15.05,0-22.58-8.87-25.36-13.26Z"/>
  </g>
  <g>
    <path class="cls-1" d="m273.94,0C182.63,76.43,91.31,152.86,0,229.29c113.25,26.52,226.49,53.04,339.74,79.57,57.85-50.22,119.09-100.1,183.89-149.17,10.74-8.14,21.48-16.17,32.2-24.1,20.58-14.88,41.16-29.76,61.74-44.65C503.02,60.62,388.48,30.31,273.94,0Z"/>
    <path class="cls-1" d="m496.35,206.16c-50.81,38.45-101.63,76.9-152.44,115.36-60.15-13.84-120.3-27.68-180.44-41.51,6.39,26.76,12.78,53.52,19.17,80.28,21.87,9.8,89.77,36.88,175.22,17.94,88.42-19.59,139.35-75.97,154.45-94.06-5.31-26-10.63-52-15.94-78Z"/>
    <path class="cls-2" d="m86.35,226.44c-1.98,33.96-3.96,67.92-5.94,101.88"/>
    <circle class="cls-1" cx="82.9" cy="300.25" r="8.51"/>
    <path class="cls-1" d="m78.54,309.71c-1.8,1.92-4.45,5.13-7.49,11.17-2.87,5.71-4.83,11.47-6.63,19.14-1.99,8.45-2.97,15.76-3.75,23.94-.86,8.96-1.67,20.92-1.69,35.26,1.23,1.21,3,2.65,5.37,3.79,5.76,2.78,11.27,1.99,13.48,1.54,1.52-12.87,3.05-25.74,4.57-38.61.73,12.82,1.46,25.65,2.19,38.47,4.03-.89,8.06-1.79,12.09-2.68-.47-13.03-.95-26.06-1.42-39.1,2.01,7.32,3.9,15.07,5.6,23.22.99,4.75,1.86,9.39,2.63,13.91,2.35-.97,4.7-1.95,7.05-2.92.39-10.18-.06-22.63-2.67-36.55-4.71-25.12-14.43-44.34-22.09-56.71-1.95,1.3-4.58,3.29-7.25,6.14Z"/>
  </g>
</svg>