<?xml version="1.0" standalone="no"?>
<!DOCTYPE svg PUBLIC "-//W3C//DTD SVG 20010904//EN"
 "http://www.w3.org/TR/2001/REC-SVG-20010904/DTD/svg10.dtd">
<svg version="1.0" xmlns="http://www.w3.org/2000/svg"
 width="125.000000pt" height="265.000000pt" viewBox="0 0 890.000000 265.000000"
 preserveAspectRatio="xMidYMid meet" style='height: 2.5rem !important;'>

<g transform="translate(0.000000,265.000000) scale(0.100000,-0.100000)"
fill="currentColor" stroke="none">
<path d="M860 2568 c-162 -81 -479 -209 -698 -281 -154 -50 -160 -53 -157 -77
2 -14 7 -304 10 -644 6 -659 10 -708 58 -838 37 -102 83 -172 180 -274 135
-142 297 -244 609 -384 l137 -61 182 82 c187 85 349 176 445 250 102 79 207
200 258 298 83 161 88 191 96 626 5 209 9 513 9 675 l1 296 -153 51 c-216 72
-518 193 -687 276 -80 39 -147 72 -150 72 -3 1 -66 -29 -140 -67z m229 -57
c170 -86 699 -295 800 -316 l34 -7 -7 -612 c-4 -336 -12 -640 -17 -675 -23
-152 -88 -279 -206 -402 -119 -125 -291 -232 -575 -359 l-118 -53 -107 48
c-150 66 -314 152 -403 210 -157 104 -300 268 -350 403 -45 120 -49 168 -56
818 l-7 619 85 27 c193 60 598 222 748 298 41 22 81 39 88 40 7 0 48 -18 91
-39z"/>
<path d="M890 2423 c-131 -62 -330 -144 -550 -224 l-185 -68 2 -578 c2 -339 7
-607 13 -647 29 -194 149 -361 358 -500 93 -62 397 -217 453 -231 27 -7 123
32 305 123 292 147 469 328 530 542 13 43 18 147 25 490 5 239 8 518 7 619
l-3 183 -135 48 c-182 64 -395 149 -565 226 -77 35 -144 64 -150 63 -5 0 -53
-21 -105 -46z m121 -133 c9 -24 17 -30 40 -30 34 0 37 -10 9 -28 -17 -11 -20
-19 -14 -50 7 -36 6 -37 -13 -19 -24 21 -47 22 -63 2 -21 -25 -30 -17 -18 17
10 29 9 33 -18 55 l-29 23 37 0 c32 0 37 3 43 30 4 17 9 30 11 30 3 0 10 -13
15 -30z m-271 -149 c0 -16 -30 -41 -49 -41 -20 0 -25 31 -7 42 16 11 56 10 56
-1z m577 -3 c15 -25 11 -38 -13 -38 -20 0 -44 24 -44 44 0 12 49 6 57 -6z
m-677 -12 c0 -22 -18 -66 -27 -66 -5 0 -14 4 -21 9 -12 7 -11 14 2 40 17 32
46 43 46 17z m754 -2 c19 -18 21 -50 4 -60 -14 -9 -38 23 -38 53 0 27 12 29
34 7z m-840 -80 c10 -36 -19 -81 -40 -63 -16 13 -12 53 8 76 16 20 25 16 32
-13z m131 6 c0 -22 -54 -38 -65 -20 -5 9 -5 19 2 28 15 17 63 11 63 -8z m692
9 c15 -15 5 -39 -16 -39 -25 0 -55 25 -47 38 9 15 49 15 63 1z m110 -24 c13
-28 14 -37 3 -49 -7 -9 -16 -14 -20 -11 -4 3 -10 -4 -13 -15 -7 -26 -48 -27
-70 -2 -21 23 -13 32 30 32 21 0 32 4 28 10 -9 14 4 70 16 70 5 0 17 -16 26
-35z m-304 -18 c75 -36 142 -94 185 -162 86 -134 81 -342 -10 -476 l-33 -49
-316 0 c-360 0 -331 -7 -382 95 -60 119 -63 263 -9 378 39 83 114 165 191 206
79 42 121 51 219 47 69 -3 94 -9 155 -39z m-699 -43 c10 -25 7 -69 -5 -81 -20
-20 -39 -3 -39 36 0 50 30 81 44 45z m141 7 c7 -12 -33 -41 -57 -41 -21 0 -32
16 -24 35 6 17 71 21 81 6z m925 -11 c16 -29 9 -74 -12 -78 -24 -5 -37 27 -26
66 10 37 23 41 38 12z m-980 -68 c0 -11 -30 -37 -52 -45 -24 -8 -44 18 -28 38
13 16 80 21 80 7z m940 -8 c11 -12 10 -18 -3 -32 -16 -15 -19 -15 -44 4 -15
11 -29 26 -31 32 -6 18 63 15 78 -4z m-1075 -57 c16 -27 24 -34 35 -27 42 27
78 0 45 -34 -28 -27 -55 -29 -76 -5 -12 15 -19 17 -19 8 -1 -27 -40 33 -40 60
0 54 25 53 55 -2z m1183 9 c4 -35 -26 -85 -39 -65 -7 12 -9 12 -9 0 0 -8 -7
-11 -19 -8 -14 3 -18 1 -14 -10 5 -12 1 -14 -18 -8 -24 7 -59 40 -59 56 0 12
47 11 71 -1 15 -8 19 -7 19 3 0 21 40 69 54 64 6 -2 12 -16 14 -31z m-1224
-129 c28 -30 33 -32 56 -20 59 30 85 -6 34 -46 -29 -23 -54 -27 -54 -10 0 5
-4 8 -9 4 -6 -3 -15 3 -21 12 -11 17 -11 17 -6 1 10 -32 -24 -17 -43 19 -14
28 -14 73 0 73 7 0 26 -15 43 -33z m1266 4 c0 -41 -35 -82 -66 -77 -13 3 -29
8 -36 12 -9 6 -9 3 1 -9 11 -15 11 -17 -1 -17 -25 0 -68 40 -68 62 0 18 4 20
33 14 17 -3 38 -14 45 -23 11 -15 12 -15 12 -1 0 16 54 68 71 68 5 0 9 -13 9
-29z m-1267 -139 c9 -8 17 -26 17 -40 0 -21 -2 -23 -15 -12 -13 11 -14 10 -9
-5 13 -33 -30 -11 -50 26 -25 46 -16 75 16 58 13 -6 31 -18 41 -27z m1282 -5
c-16 -63 -80 -89 -80 -32 0 22 8 35 34 52 39 26 55 19 46 -20z m-1165 23 c0
-21 -31 -70 -50 -80 -45 -24 -57 35 -14 69 28 22 64 28 64 11z m1053 -18 c19
-17 20 -63 1 -69 -18 -6 -63 39 -70 71 -7 28 -6 29 22 22 16 -4 37 -15 47 -24z
m-1052 -132 c-13 -45 -41 -74 -41 -44 -1 18 -1 18 -11 1 -7 -12 -18 -16 -32
-13 -12 3 -16 3 -9 0 18 -9 14 -24 -7 -24 -24 0 -67 34 -74 60 -4 17 0 20 33
20 22 0 45 -7 54 -16 14 -14 16 -14 16 0 0 8 14 32 32 51 28 32 33 34 41 19 6
-11 5 -30 -2 -54z m1045 -2 c4 -14 9 -16 24 -8 30 16 80 13 80 -5 0 -25 -47
-65 -76 -65 -24 0 -25 2 -13 17 10 12 11 15 1 9 -7 -4 -19 -2 -27 4 -12 10
-15 10 -15 0 0 -9 -6 -8 -19 4 -23 21 -35 67 -26 97 7 20 7 20 36 -7 16 -15
31 -36 35 -46z m-996 -47 c21 -41 4 -137 -19 -102 -7 11 -9 11 -13 0 -4 -9
-10 -5 -18 13 -11 24 -10 34 5 68 20 45 29 49 45 21z m925 -25 c13 -34 14 -48
6 -65 -14 -25 -46 -28 -55 -5 -15 39 1 114 24 114 4 0 16 -20 25 -44z m-983
-83 c25 -22 23 -37 -4 -30 -21 5 -21 5 -5 -7 25 -19 21 -26 -13 -26 -34 0 -97
50 -86 68 11 18 87 15 108 -5z m133 -13 c17 -33 19 -78 5 -100 -8 -12 -10 -12
-11 5 0 16 -3 14 -11 -7 -6 -18 -17 -28 -31 -29 -22 -2 -22 -2 1 -6 45 -9 17
-33 -38 -33 -16 0 -41 11 -57 24 -36 31 -23 47 45 54 45 4 48 6 44 28 -7 37 7
94 23 94 8 0 21 -13 30 -30z m779 -1 c10 -53 7 -75 -14 -94 -19 -17 -20 -17
-21 1 0 18 -1 18 -9 -1 -7 -19 -8 -19 -15 -2 -4 10 -5 36 -2 58 9 69 49 94 61
38z m191 21 c11 -18 -51 -70 -84 -70 -35 0 -39 7 -13 26 15 12 15 12 -5 7 -27
-6 -29 4 -6 29 18 20 97 26 108 8z m-360 -35 c-71 -59 -219 -89 -324 -66 -57
12 -155 56 -172 78 -10 11 35 13 257 13 l269 -1 -30 -24z m-523 -47 c27 -23
48 -62 48 -91 0 -26 -2 -28 -17 -16 -15 12 -16 12 -10 -3 9 -25 -15 -23 -38 2
-24 26 -34 120 -13 120 8 0 21 -6 30 -12z m596 -38 c-3 -28 -13 -59 -23 -70
-22 -25 -50 -27 -41 -4 5 14 4 15 -9 4 -13 -11 -15 -9 -15 14 0 51 40 105 79
106 10 0 12 -12 9 -50z m187 -2 c32 -14 31 -21 -1 -47 -26 -21 -67 -27 -98
-15 -23 9 -19 24 7 25 l22 2 -22 4 c-26 5 -29 13 -11 31 15 15 69 15 103 0z
m-643 -28 c27 -20 55 -76 45 -87 -4 -3 -15 0 -24 8 -16 13 -17 12 -4 -4 19
-24 7 -33 -24 -19 -26 12 -37 32 -50 90 -6 27 -4 32 13 32 11 0 31 -9 44 -20z
m331 -12 c-9 -49 -30 -86 -54 -93 -27 -9 -35 0 -18 22 13 16 12 17 -4 4 -22
-18 -30 -10 -21 23 7 31 58 76 85 76 16 0 18 -5 12 -32z m-475 -50 c18 -18 15
-28 -10 -29 l-23 -2 23 -4 c30 -6 28 -21 -5 -34 -35 -13 -85 -4 -107 20 -16
18 -15 20 16 40 37 23 88 27 106 9z m669 -9 c32 -20 33 -22 17 -40 -22 -24
-72 -33 -107 -20 -33 13 -35 28 -4 34 18 3 17 5 -7 6 -28 1 -29 1 -11 21 24
26 69 26 112 -1z m-523 -45 c21 -8 20 -24 -1 -25 -12 -1 -9 -3 6 -8 l25 -7
-28 -22 c-33 -25 -92 -29 -120 -9 -17 13 -16 16 20 45 37 31 66 38 98 26z
m363 -20 c18 -14 33 -31 33 -38 0 -33 -86 -35 -126 -4 l-28 22 25 7 c15 5 18
7 7 8 -21 1 -24 17 -5 24 29 12 62 5 94 -19z m-796 -71 l-30 -60 57 9 c169 28
369 -36 484 -153 l57 -58 63 62 c115 114 286 171 458 151 l78 -10 -30 59 c-16
33 -28 61 -26 62 2 2 41 -42 86 -97 46 -55 81 -102 79 -104 -1 -2 -30 3 -62
11 -99 25 -249 29 -334 11 -68 -14 -209 -71 -200 -80 2 -2 38 7 79 22 66 22
92 26 210 26 74 1 154 -2 177 -7 37 -6 42 -5 36 9 -5 14 -2 16 23 10 16 -4 34
-13 40 -19 18 -20 56 -87 49 -87 -4 0 -50 9 -103 19 -209 42 -365 36 -522 -20
-47 -17 -92 -31 -100 -31 -8 0 -53 14 -100 30 -162 57 -313 63 -522 21 -53
-10 -99 -19 -103 -19 -5 0 35 78 49 96 1 1 16 5 35 9 30 6 33 5 27 -10 -5 -14
-2 -16 11 -10 10 4 74 10 143 12 141 5 233 -9 328 -52 74 -33 37 -2 -44 36
-126 61 -308 74 -469 34 -32 -8 -61 -12 -63 -10 -2 2 34 49 79 104 46 55 84
99 87 97 2 -2 -10 -31 -27 -63z m378 -432 c0 -10 -2 -11 -6 -3 -5 14 -33 17
-33 3 0 -5 11 -16 25 -25 30 -20 32 -41 6 -56 -23 -12 -51 -3 -51 16 0 12 4
12 20 2 31 -20 38 2 7 24 -31 22 -35 43 -10 56 22 13 43 4 42 -17z m-69 2 c0
-13 -3 -14 -12 -5 -16 16 -28 15 -28 -3 0 -8 6 -14 13 -12 6 1 12 -5 12 -13 0
-8 -6 -14 -12 -12 -7 1 -13 -5 -13 -13 0 -18 26 -20 33 -2 3 7 6 5 6 -5 1 -14
-7 -18 -36 -18 l-38 0 0 50 0 50 38 0 c28 0 37 -4 37 -17z m262 -8 c8 -19 8
-31 0 -50 -10 -21 -19 -25 -52 -25 -38 0 -39 1 -30 24 11 30 2 74 -12 54 -7
-10 -11 -10 -15 0 -2 6 -9 12 -14 12 -14 0 -11 -78 4 -83 6 -3 1 -6 -13 -6
-24 -1 -25 1 -21 46 3 43 2 46 -13 34 -14 -11 -16 -11 -16 3 0 13 13 16 85 16
81 0 86 -1 97 -25z m106 2 c2 -10 -4 -27 -13 -36 -15 -17 -14 -19 7 -26 19 -6
20 -8 6 -12 -10 -2 -27 -3 -39 -1 l-21 3 21 27 c22 27 28 58 12 58 -5 0 -11
-6 -14 -12 -2 -7 -8 -10 -12 -6 -4 4 -4 12 0 18 11 17 49 7 53 -13z m76 7 c23
-59 -17 -117 -48 -72 -19 26 -20 42 -6 69 13 23 46 25 54 3z m74 -7 c2 -10 -4
-27 -13 -36 -15 -17 -14 -19 7 -26 21 -7 20 -8 -10 -12 -44 -6 -50 2 -24 30
22 24 30 57 13 57 -5 0 -11 -6 -14 -12 -2 -7 -8 -10 -12 -6 -4 4 -4 12 0 18
11 17 49 7 53 -13z m62 -21 c0 -26 5 -46 13 -49 6 -3 -4 -5 -23 -5 -19 0 -29
2 -22 5 15 6 16 73 1 73 -5 0 -7 5 -4 10 3 6 13 10 21 10 10 0 14 -12 14 -44z"/>
<path d="M855 1892 l-140 -77 148 -3 c81 -1 212 -1 291 0 l144 3 -139 78 c-77
42 -145 77 -152 77 -7 0 -75 -35 -152 -78z m183 1 c4 -30 -31 -49 -52 -27 -19
19 -20 26 -4 42 19 19 53 10 56 -15z"/>
<path d="M720 1770 c0 -6 103 -10 290 -10 187 0 290 4 290 10 0 6 -103 10
-290 10 -187 0 -290 -4 -290 -10z"/>
<path d="M770 1700 c13 -24 9 -235 -4 -262 -7 -15 -3 -18 25 -18 l34 0 0 150
0 150 -33 0 c-30 0 -32 -2 -22 -20z"/>
<path d="M915 1588 c0 -73 -4 -141 -9 -150 -7 -15 -3 -18 25 -18 l34 0 0 150
0 150 -25 0 -25 0 0 -132z"/>
<path d="M1055 1588 c0 -73 -4 -141 -9 -150 -7 -16 -3 -18 33 -18 39 0 41 1
31 21 -7 13 -10 68 -8 150 l3 129 -25 0 -25 0 0 -132z"/>
<path d="M1198 1589 c2 -85 0 -135 -7 -142 -20 -20 -12 -27 29 -27 38 0 40 1
30 21 -7 13 -10 68 -8 150 l3 129 -25 0 -25 0 3 -131z"/>
<path d="M710 1365 c0 -13 41 -15 305 -15 264 0 305 2 305 15 0 13 -41 15
-305 15 -264 0 -305 -2 -305 -15z"/>
<path d="M950 480 c0 -43 13 -52 30 -20 8 14 8 26 0 40 -17 32 -30 23 -30 -20z"/>
<path d="M1146 496 c-7 -27 1 -56 15 -56 12 0 12 67 0 74 -5 3 -12 -5 -15 -18z"/>
<path d="M4746 2214 c-240 -58 -406 -288 -406 -564 0 -164 53 -302 155 -406
94 -96 212 -144 357 -144 178 0 308 71 413 226 48 70 27 84 -28 19 -105 -126
-175 -166 -298 -173 -204 -12 -357 106 -404 310 -20 87 -19 258 1 356 30 145
98 248 199 300 66 34 198 43 273 18 101 -34 175 -113 223 -238 33 -87 43 -74
35 45 -19 292 -20 299 -61 234 -26 -41 -50 -40 -165 2 -97 35 -191 40 -294 15z"/>
<path d="M2330 2196 c0 -9 16 -15 46 -19 32 -3 55 -13 73 -31 l26 -26 0 -455
0 -455 -26 -26 c-18 -18 -41 -28 -73 -31 -30 -4 -46 -10 -46 -19 0 -12 69 -14
410 -14 l409 0 46 143 c50 161 50 157 33 157 -7 0 -25 -26 -40 -59 -33 -69
-95 -135 -146 -153 -25 -8 -93 -13 -204 -13 -147 0 -169 2 -185 18 -17 16 -18
50 -21 435 -2 281 0 429 8 454 13 45 44 64 118 74 34 4 52 11 52 20 0 12 -43
14 -240 14 -197 0 -240 -2 -240 -14z"/>
<path d="M3130 2197 c0 -8 18 -19 41 -26 22 -7 57 -29 77 -50 20 -21 113 -156
206 -300 l168 -261 -3 -169 c-5 -203 -11 -220 -97 -235 -32 -6 -52 -15 -52
-23 0 -10 46 -13 225 -13 193 0 225 2 225 15 0 10 -10 15 -30 15 -47 0 -99 26
-110 55 -6 15 -10 107 -10 205 l0 178 152 243 c84 134 169 260 189 280 21 21
61 46 88 56 28 10 51 23 51 31 0 10 -39 12 -182 10 -188 -3 -228 -13 -144 -36
99 -26 90 -72 -65 -319 -98 -158 -124 -192 -134 -181 -22 24 -236 368 -251
404 -11 26 -12 39 -3 55 12 22 66 49 100 49 12 0 19 5 17 13 -7 19 -458 23
-458 4z"/>
<path d="M5390 2195 c0 -10 10 -15 30 -15 57 0 98 -25 109 -67 16 -58 15 -870
-2 -903 -14 -29 -70 -60 -109 -60 -18 0 -28 -5 -28 -15 0 -13 52 -15 409 -15
l409 0 45 135 c41 122 44 135 27 135 -10 0 -21 -9 -25 -20 -14 -43 -96 -140
-137 -162 -40 -21 -55 -23 -221 -23 -165 0 -180 1 -193 19 -11 16 -14 65 -14
238 l0 218 145 0 c199 0 234 -16 250 -117 4 -27 12 -43 21 -43 12 0 14 33 14
190 0 154 -3 190 -14 190 -8 0 -15 -16 -19 -42 -6 -47 -32 -87 -68 -105 -16
-9 -75 -13 -176 -13 l-153 0 0 215 0 215 168 0 c92 0 184 -3 205 -6 54 -9 92
-50 112 -117 11 -38 22 -57 32 -57 14 0 15 10 10 68 -4 37 -7 91 -7 120 l0 52
-410 0 c-358 0 -410 -2 -410 -15z"/>
<path d="M6350 2196 c0 -9 16 -15 46 -19 32 -3 55 -13 73 -31 l26 -26 6 -368
c7 -406 11 -433 72 -514 38 -51 112 -103 170 -120 25 -8 97 -13 177 -13 130 0
137 1 200 31 119 57 180 142 200 279 5 39 10 204 10 368 0 337 3 357 64 382
20 8 47 15 61 15 16 0 25 6 25 15 0 13 -27 15 -185 15 -150 0 -185 -3 -185
-14 0 -9 16 -15 46 -19 32 -3 55 -13 73 -31 l26 -26 0 -353 c0 -415 -3 -434
-83 -509 -63 -59 -140 -88 -235 -88 -86 0 -127 11 -179 46 -50 35 -84 108 -97
207 -15 110 -13 642 2 687 14 40 63 70 115 70 23 0 32 4 30 13 -7 19 -458 23
-458 3z"/>
<path d="M7530 2196 c0 -8 15 -17 36 -21 20 -3 46 -11 59 -17 49 -22 50 -30
50 -504 l0 -444 -26 -26 c-18 -18 -41 -28 -73 -31 -30 -4 -46 -10 -46 -19 0
-11 35 -14 185 -14 158 0 185 2 185 15 0 10 -10 15 -30 15 -48 0 -99 26 -110
55 -6 17 -9 174 -8 420 l3 393 199 -441 c110 -243 203 -446 208 -452 6 -7 14
-4 22 8 8 9 100 210 206 445 105 235 196 432 202 437 6 6 8 -137 6 -392 -3
-389 -4 -402 -24 -430 -16 -21 -34 -30 -72 -37 -32 -6 -52 -15 -52 -23 0 -10
46 -13 225 -13 193 0 225 2 225 15 0 10 -10 15 -30 15 -47 0 -99 26 -110 55
-13 35 -13 885 0 920 11 29 63 55 110 55 20 0 30 5 30 15 0 13 -21 15 -152 13
l-152 -3 -177 -395 c-98 -217 -184 -407 -191 -423 -13 -26 -20 -12 -207 398
l-194 425 -148 0 c-121 0 -149 -3 -149 -14z"/>
<path d="M2456 659 c-53 -128 -87 -196 -104 -210 l-25 -19 64 1 c49 0 59 2 42
9 -27 11 -28 26 -7 80 l16 40 82 0 82 0 17 -47 c22 -61 22 -62 -5 -73 -17 -6
2 -9 62 -9 47 1 78 3 70 6 -35 13 -52 44 -126 224 -43 104 -81 189 -84 189 -3
0 -41 -86 -84 -191z m104 11 c16 -40 30 -74 30 -76 0 -2 -29 -4 -65 -4 -36 0
-65 2 -65 5 0 11 63 155 66 152 2 -2 17 -36 34 -77z"/>
<path d="M3093 830 c-39 -23 -53 -48 -53 -93 0 -45 27 -78 96 -117 89 -51 114
-77 114 -116 0 -45 -35 -69 -91 -61 -49 6 -76 29 -100 82 l-18 40 0 -74 c-1
-64 1 -72 14 -61 11 9 22 9 46 1 89 -31 179 -1 199 67 19 61 -4 101 -81 147
-108 64 -129 83 -129 114 0 37 28 61 71 61 46 0 77 -23 99 -74 l19 -41 0 75
c1 50 -2 70 -9 60 -7 -12 -16 -13 -55 -2 -62 16 -85 15 -122 -8z"/>
<path d="M3685 840 c-40 -16 -70 -59 -70 -100 0 -49 30 -82 121 -135 98 -58
120 -103 68 -144 -57 -45 -141 -14 -167 61 l-15 43 -1 -74 c-1 -64 1 -72 14
-61 11 9 22 9 46 1 18 -6 54 -11 81 -11 43 0 54 4 84 34 27 27 34 42 34 74 0
51 -24 81 -103 128 -114 68 -138 103 -97 144 47 47 142 10 156 -60 11 -54 24
-32 24 40 0 67 -1 70 -19 58 -15 -9 -28 -9 -59 0 -45 14 -69 14 -97 2z"/>
<path d="M4864 836 c-41 -18 -64 -52 -64 -96 0 -50 18 -71 114 -131 91 -57
111 -84 96 -123 -21 -57 -114 -61 -162 -6 -16 16 -28 39 -28 50 0 10 -4 22
-10 25 -6 4 -10 -20 -10 -64 0 -39 4 -71 9 -71 5 0 11 5 13 11 3 8 14 8 43 0
89 -25 162 -6 190 49 33 64 6 121 -82 170 -97 55 -123 78 -123 109 0 37 28 61
73 61 44 0 86 -33 103 -81 12 -32 13 -30 13 41 0 50 -2 70 -9 60 -7 -12 -16
-13 -55 -2 -56 15 -72 15 -111 -2z"/>
<path d="M5450 843 c-8 -3 -27 -17 -42 -31 -22 -20 -28 -35 -28 -68 0 -53 23
-82 103 -130 34 -20 72 -46 85 -57 31 -28 29 -70 -4 -96 -57 -45 -141 -14
-167 61 l-15 43 -1 -74 c-1 -64 1 -72 14 -61 11 9 22 9 46 1 18 -6 54 -11 81
-11 43 0 54 4 84 34 27 27 34 42 34 74 0 52 -31 89 -108 132 -106 60 -133 99
-92 140 32 32 94 27 131 -9 16 -16 29 -39 29 -50 0 -11 5 -23 10 -26 6 -4 10
20 10 66 0 62 -2 70 -15 59 -12 -10 -25 -10 -59 -1 -48 12 -72 13 -96 4z"/>
<path d="M8694 836 c-42 -18 -64 -52 -64 -97 0 -48 25 -78 107 -127 82 -48
106 -73 106 -109 0 -69 -110 -85 -165 -24 -15 17 -28 40 -28 51 0 10 -4 22
-10 25 -6 4 -10 -20 -10 -66 0 -62 2 -70 15 -59 11 9 22 9 46 1 79 -27 166 -5
194 49 33 64 10 114 -77 166 -107 63 -128 82 -128 113 0 37 28 61 71 61 45 0
77 -23 100 -74 l19 -41 0 75 c0 50 -3 70 -10 60 -7 -12 -16 -13 -55 -2 -56 15
-72 15 -111 -2z"/>
<path d="M4177 833 c41 -8 44 -22 41 -209 l-3 -178 -25 -7 c-14 -4 45 -7 132
-8 l156 -1 16 47 c21 63 21 63 -20 14 l-36 -42 -77 3 -76 3 -3 88 -3 87 64 0
c66 0 80 -7 90 -45 2 -11 5 14 5 55 0 60 -2 70 -9 49 -11 -30 -33 -39 -101
-39 l-48 0 0 85 0 85 63 0 c85 0 102 -6 120 -43 l16 -32 0 48 1 47 -162 -1
c-90 -1 -153 -4 -141 -6z"/>
<path d="M5940 829 c13 -6 28 -15 32 -22 10 -15 10 -338 0 -353 -4 -7 -16 -14
-27 -17 -11 -2 12 -5 50 -5 43 0 60 3 45 7 l-25 7 -3 154 c-1 85 0 152 3 149
3 -3 36 -75 75 -160 38 -84 73 -155 78 -157 4 -1 42 73 83 165 l74 167 3 -149
c1 -82 0 -155 -2 -161 -3 -7 -15 -14 -28 -17 -13 -2 15 -4 62 -5 48 0 74 3 60
7 l-25 7 -3 178 c-3 187 0 201 41 209 12 3 -6 4 -41 3 l-63 -1 -70 -154 c-38
-85 -71 -156 -73 -158 -2 -2 -36 69 -76 157 l-73 160 -61 -1 c-51 0 -57 -2
-36 -10z"/>
<path d="M6733 828 l27 -10 -2 -186 -3 -186 -25 -7 c-14 -4 46 -7 133 -8 l157
-1 10 25 c5 14 12 38 15 53 5 25 5 25 -7 8 -40 -61 -53 -67 -135 -64 l-78 3
-3 88 -3 87 64 0 c65 0 87 -10 87 -42 0 -10 5 -18 10 -18 6 0 10 30 10 70 0
40 -4 70 -10 70 -5 0 -10 -9 -10 -20 0 -27 -30 -40 -94 -40 l-56 0 0 85 0 85
63 0 c86 0 107 -8 123 -44 l13 -31 1 48 0 47 -157 -1 c-119 0 -151 -3 -130
-11z"/>
<path d="M7328 820 l42 -19 -2 -178 -3 -177 -25 -7 c-15 -4 5 -7 50 -7 41 1
64 3 50 5 -14 3 -28 10 -32 17 -4 6 -8 76 -8 155 l0 143 133 -165 c72 -91 135
-166 140 -166 4 -1 7 86 7 193 0 202 1 208 45 219 11 2 -14 5 -55 5 -55 1 -69
-2 -52 -8 12 -5 25 -15 28 -23 2 -7 3 -71 2 -141 l-3 -128 -120 151 -120 151
-60 0 -60 0 43 -20z"/>
<path d="M8000 788 l0 -53 18 35 c16 33 21 35 70 38 l52 3 0 -173 c0 -95 -4
-178 -8 -184 -4 -7 -18 -14 -32 -17 -14 -2 16 -4 65 -5 50 0 79 3 65 7 l-25 7
-3 182 -2 183 52 -3 c49 -3 54 -5 70 -38 l17 -35 1 53 0 52 -170 0 -170 0 0
-52z"/>
</g>
</svg>
